<svg xmlns="http://www.w3.org/2000/svg" xmlns:xlink="http://www.w3.org/1999/xlink" version="1.1" width="256" height="256" viewBox="0 0 256 256" xml:space="preserve">

<defs>
</defs>
<g style="stroke: none; stroke-width: 0; stroke-dasharray: none; stroke-linecap: butt; stroke-linejoin: miter; stroke-miterlimit: 10; fill: none; fill-rule: nonzero; opacity: 1;" transform="translate(1.4065934065934016 1.4065934065934016) scale(2.81 2.81)" >
	<path d="M 85.187 28.793 H 4.813 c -1.104 0 -2 -0.896 -2 -2 V 16.255 c 0 -5.367 4.366 -9.733 9.733 -9.733 h 64.908 c 5.366 0 9.732 4.366 9.732 9.733 v 10.539 C 87.187 27.898 86.291 28.793 85.187 28.793 z M 6.813 24.793 h 76.374 v -8.539 c 0 -3.161 -2.571 -5.733 -5.732 -5.733 H 12.546 c -3.162 0 -5.733 2.572 -5.733 5.733 V 24.793 z" style="stroke: none; stroke-width: 1; stroke-dasharray: none; stroke-linecap: butt; stroke-linejoin: miter; stroke-miterlimit: 10; fill: rgb(0,0,0); fill-rule: nonzero; opacity: 1;" transform=" matrix(1 0 0 1 0 0) " stroke-linecap="round" />
	<path d="M 43.13 90 H 12.546 c -5.367 0 -9.733 -4.366 -9.733 -9.733 V 26.793 c 0 -1.104 0.896 -2 2 -2 h 80.374 c 1.104 0 2 0.896 2 2 v 19.15 c 0 1.104 -0.896 2 -2 2 s -2 -0.896 -2 -2 v -17.15 H 6.813 v 51.473 c 0 3.161 2.572 5.733 5.733 5.733 H 43.13 c 1.104 0 2 0.896 2 2 S 44.235 90 43.13 90 z" style="stroke: none; stroke-width: 1; stroke-dasharray: none; stroke-linecap: butt; stroke-linejoin: miter; stroke-miterlimit: 10; fill: rgb(0,0,0); fill-rule: nonzero; opacity: 1;" transform=" matrix(1 0 0 1 0 0) " stroke-linecap="round" />
	<path d="M 20.855 17.045 c -1.104 0 -2 -0.896 -2 -2 V 2 c 0 -1.104 0.896 -2 2 -2 s 2 0.896 2 2 v 13.045 C 22.855 16.149 21.96 17.045 20.855 17.045 z" style="stroke: none; stroke-width: 1; stroke-dasharray: none; stroke-linecap: butt; stroke-linejoin: miter; stroke-miterlimit: 10; fill: rgb(0,0,0); fill-rule: nonzero; opacity: 1;" transform=" matrix(1 0 0 1 0 0) " stroke-linecap="round" />
	<path d="M 69.145 17.045 c -1.104 0 -2 -0.896 -2 -2 V 2 c 0 -1.104 0.896 -2 2 -2 s 2 0.896 2 2 v 13.045 C 71.145 16.149 70.249 17.045 69.145 17.045 z" style="stroke: none; stroke-width: 1; stroke-dasharray: none; stroke-linecap: butt; stroke-linejoin: miter; stroke-miterlimit: 10; fill: rgb(0,0,0); fill-rule: nonzero; opacity: 1;" transform=" matrix(1 0 0 1 0 0) " stroke-linecap="round" />
	<path d="M 45 17.045 c -1.104 0 -2 -0.896 -2 -2 V 2 c 0 -1.104 0.896 -2 2 -2 s 2 0.896 2 2 v 13.045 C 47 16.149 46.104 17.045 45 17.045 z" style="stroke: none; stroke-width: 1; stroke-dasharray: none; stroke-linecap: butt; stroke-linejoin: miter; stroke-miterlimit: 10; fill: rgb(0,0,0); fill-rule: nonzero; opacity: 1;" transform=" matrix(1 0 0 1 0 0) " stroke-linecap="round" />
	<path d="M 20.814 41.984 h -1.519 c -0.685 0 -1.241 -0.555 -1.241 -1.241 v -1.519 c 0 -0.685 0.555 -1.241 1.241 -1.241 h 1.519 c 0.685 0 1.241 0.555 1.241 1.241 v 1.519 C 22.055 41.429 21.5 41.984 20.814 41.984 z" style="stroke: none; stroke-width: 1; stroke-dasharray: none; stroke-linecap: butt; stroke-linejoin: miter; stroke-miterlimit: 10; fill: rgb(0,0,0); fill-rule: nonzero; opacity: 1;" transform=" matrix(1 0 0 1 0 0) " stroke-linecap="round" />
	<path d="M 37.444 41.984 h -1.519 c -0.685 0 -1.241 -0.555 -1.241 -1.241 v -1.519 c 0 -0.685 0.555 -1.241 1.241 -1.241 h 1.519 c 0.685 0 1.241 0.555 1.241 1.241 v 1.519 C 38.685 41.429 38.13 41.984 37.444 41.984 z" style="stroke: none; stroke-width: 1; stroke-dasharray: none; stroke-linecap: butt; stroke-linejoin: miter; stroke-miterlimit: 10; fill: rgb(0,0,0); fill-rule: nonzero; opacity: 1;" transform=" matrix(1 0 0 1 0 0) " stroke-linecap="round" />
	<path d="M 54.074 41.984 h -1.519 c -0.685 0 -1.241 -0.555 -1.241 -1.241 v -1.519 c 0 -0.685 0.555 -1.241 1.241 -1.241 h 1.519 c 0.685 0 1.241 0.555 1.241 1.241 v 1.519 C 55.315 41.429 54.76 41.984 54.074 41.984 z" style="stroke: none; stroke-width: 1; stroke-dasharray: none; stroke-linecap: butt; stroke-linejoin: miter; stroke-miterlimit: 10; fill: rgb(0,0,0); fill-rule: nonzero; opacity: 1;" transform=" matrix(1 0 0 1 0 0) " stroke-linecap="round" />
	<path d="M 70.705 41.984 h -1.519 c -0.685 0 -1.241 -0.555 -1.241 -1.241 v -1.519 c 0 -0.685 0.555 -1.241 1.241 -1.241 h 1.519 c 0.685 0 1.241 0.555 1.241 1.241 v 1.519 C 71.945 41.429 71.39 41.984 70.705 41.984 z" style="stroke: none; stroke-width: 1; stroke-dasharray: none; stroke-linecap: butt; stroke-linejoin: miter; stroke-miterlimit: 10; fill: rgb(0,0,0); fill-rule: nonzero; opacity: 1;" transform=" matrix(1 0 0 1 0 0) " stroke-linecap="round" />
	<path d="M 20.814 58.614 h -1.519 c -0.685 0 -1.241 -0.555 -1.241 -1.241 v -1.519 c 0 -0.685 0.555 -1.241 1.241 -1.241 h 1.519 c 0.685 0 1.241 0.555 1.241 1.241 v 1.519 C 22.055 58.059 21.5 58.614 20.814 58.614 z" style="stroke: none; stroke-width: 1; stroke-dasharray: none; stroke-linecap: butt; stroke-linejoin: miter; stroke-miterlimit: 10; fill: rgb(0,0,0); fill-rule: nonzero; opacity: 1;" transform=" matrix(1 0 0 1 0 0) " stroke-linecap="round" />
	<path d="M 37.444 58.614 h -1.519 c -0.685 0 -1.241 -0.555 -1.241 -1.241 v -1.519 c 0 -0.685 0.555 -1.241 1.241 -1.241 h 1.519 c 0.685 0 1.241 0.555 1.241 1.241 v 1.519 C 38.685 58.059 38.13 58.614 37.444 58.614 z" style="stroke: none; stroke-width: 1; stroke-dasharray: none; stroke-linecap: butt; stroke-linejoin: miter; stroke-miterlimit: 10; fill: rgb(0,0,0); fill-rule: nonzero; opacity: 1;" transform=" matrix(1 0 0 1 0 0) " stroke-linecap="round" />
	<path d="M 20.814 75.244 h -1.519 c -0.685 0 -1.241 -0.555 -1.241 -1.241 v -1.519 c 0 -0.685 0.555 -1.241 1.241 -1.241 h 1.519 c 0.685 0 1.241 0.555 1.241 1.241 v 1.519 C 22.055 74.689 21.5 75.244 20.814 75.244 z" style="stroke: none; stroke-width: 1; stroke-dasharray: none; stroke-linecap: butt; stroke-linejoin: miter; stroke-miterlimit: 10; fill: rgb(0,0,0); fill-rule: nonzero; opacity: 1;" transform=" matrix(1 0 0 1 0 0) " stroke-linecap="round" />
	<path d="M 37.444 75.244 h -1.519 c -0.685 0 -1.241 -0.555 -1.241 -1.241 v -1.519 c 0 -0.685 0.555 -1.241 1.241 -1.241 h 1.519 c 0.685 0 1.241 0.555 1.241 1.241 v 1.519 C 38.685 74.689 38.13 75.244 37.444 75.244 z" style="stroke: none; stroke-width: 1; stroke-dasharray: none; stroke-linecap: butt; stroke-linejoin: miter; stroke-miterlimit: 10; fill: rgb(0,0,0); fill-rule: nonzero; opacity: 1;" transform=" matrix(1 0 0 1 0 0) " stroke-linecap="round" />
	<path d="M 66.77 90 c -11.258 0 -20.417 -9.159 -20.417 -20.417 c 0 -11.259 9.159 -20.418 20.417 -20.418 s 20.417 9.159 20.417 20.418 C 87.187 80.841 78.027 90 66.77 90 z M 66.77 53.165 c -9.053 0 -16.417 7.365 -16.417 16.418 S 57.717 86 66.77 86 s 16.417 -7.364 16.417 -16.417 S 75.822 53.165 66.77 53.165 z" style="stroke: none; stroke-width: 1; stroke-dasharray: none; stroke-linecap: butt; stroke-linejoin: miter; stroke-miterlimit: 10; fill: rgb(0,0,0); fill-rule: nonzero; opacity: 1;" transform=" matrix(1 0 0 1 0 0) " stroke-linecap="round" />
	<path d="M 64.683 77.052 c -0.016 0 -0.032 0 -0.048 -0.001 c -0.563 -0.013 -1.095 -0.264 -1.464 -0.689 l -4.244 -4.896 c -0.723 -0.834 -0.633 -2.098 0.202 -2.821 c 0.834 -0.722 2.099 -0.635 2.821 0.202 l 2.804 3.235 l 7.95 -8.326 c 0.762 -0.801 2.029 -0.828 2.827 -0.065 c 0.799 0.763 0.828 2.028 0.065 2.827 l -9.468 9.916 C 65.751 76.829 65.229 77.052 64.683 77.052 z" style="stroke: none; stroke-width: 1; stroke-dasharray: none; stroke-linecap: butt; stroke-linejoin: miter; stroke-miterlimit: 10; fill: rgb(0,0,0); fill-rule: nonzero; opacity: 1;" transform=" matrix(1 0 0 1 0 0) " stroke-linecap="round" />
</g>
</svg>