<svg xmlns="http://www.w3.org/2000/svg" xmlns:xlink="http://www.w3.org/1999/xlink" version="1.1" width="256" height="256" viewBox="0 0 256 256" xml:space="preserve">

<defs>
</defs>
<g style="stroke: none; stroke-width: 0; stroke-dasharray: none; stroke-linecap: butt; stroke-linejoin: miter; stroke-miterlimit: 10; fill: none; fill-rule: nonzero; opacity: 1;" transform="translate(1.4065934065934016 1.4065934065934016) scale(2.81 2.81)" >
	<path d="M 60.75 90 H 35.093 c -1.626 0 -2.96 -1.32 -2.974 -2.944 l -0.008 -0.945 c -0.015 -1.759 -0.034 -3.934 -0.048 -6.226 c -16.251 2.984 -20.015 -7.832 -20.052 -7.944 c -2.49 -6.322 -6.068 -8.12 -6.104 -8.137 l -0.134 -0.077 c -1.484 -1.015 -3.127 -2.368 -2.662 -3.838 c 0.485 -1.535 2.912 -1.613 3.648 -1.613 c 6.515 0.456 9.867 6.412 10.006 6.665 c 4.658 7.982 12.109 6.172 15.578 4.741 c 0.434 -2.573 1.347 -4.818 2.643 -6.529 c -11.756 -1.67 -26.128 -7.065 -26.128 -30.225 c 0 -6.205 2.017 -11.659 5.996 -16.223 c -0.821 -2.318 -2.243 -8.225 0.798 -15.94 l 0.174 -0.441 l 0.452 -0.145 c 0.22 -0.071 5.487 -1.625 16.89 5.982 c 4.665 -1.252 9.624 -1.899 14.746 -1.923 c 5.131 0.024 10.095 0.67 14.769 1.923 c 11.394 -7.61 16.65 -6.052 16.871 -5.982 l 0.451 0.144 l 0.174 0.44 c 3.048 7.715 1.628 13.622 0.807 15.94 c 3.973 4.548 5.987 10.003 5.987 16.223 c 0 23.169 -14.393 28.537 -26.173 30.181 c 1.914 2.506 2.983 6.138 2.983 10.295 c 0 5.515 -0.032 10.284 -0.053 13.356 l -0.002 0.294 C 63.714 88.677 62.38 90 60.75 90 z M 34.049 77.427 l 0.006 1.234 c 0.014 2.727 0.037 5.368 0.055 7.432 l 0.008 0.945 C 34.123 87.569 34.56 88 35.093 88 H 60.75 c 0.534 0 0.972 -0.432 0.975 -0.961 l 0.002 -0.294 c 0.021 -3.069 0.053 -7.834 0.053 -13.343 c 0 -6.398 -2.587 -9.326 -3.7 -10.288 l -1.731 -1.498 l 2.275 -0.253 c 12.266 -1.364 26.346 -5.83 26.346 -28.437 c 0 -5.917 -1.977 -11.076 -5.876 -15.335 l -0.43 -0.469 l 0.242 -0.587 c 0.627 -1.52 2.409 -6.982 -0.39 -14.515 c -1.386 -0.125 -6.208 0.028 -15.096 6.053 l -0.383 0.26 l -0.446 -0.124 c -4.567 -1.267 -9.643 -1.948 -14.68 -1.972 C 42.885 6.26 37.814 6.942 33.255 8.208 L 32.81 8.332 l -0.383 -0.259 C 23.546 2.059 18.715 1.896 17.31 2.022 c -2.792 7.532 -1.009 12.992 -0.382 14.513 l 0.242 0.586 l -0.428 0.469 c -3.905 4.275 -5.885 9.435 -5.885 15.336 c 0 22.595 14.05 27.091 26.29 28.485 l 2.253 0.256 l -1.708 1.491 c -1.034 0.901 -2.857 3.057 -3.454 7.36 l -0.077 0.549 l -0.505 0.227 c -2.885 1.289 -12.748 4.715 -18.631 -5.368 c -0.041 -0.072 -2.993 -5.277 -8.35 -5.654 c -0.529 -0.016 -1.238 0.105 -1.566 0.242 c 0.148 0.229 0.568 0.718 1.738 1.525 c 0.633 0.328 4.405 2.52 7.044 9.223 c 0.153 0.449 3.502 9.787 18.952 6.426 L 34.049 77.427 z" style="stroke: none; stroke-width: 1; stroke-dasharray: none; stroke-linecap: butt; stroke-linejoin: miter; stroke-miterlimit: 10; fill: rgb(36,41,46); fill-rule: nonzero; opacity: 1;" transform=" matrix(1 0 0 1 0 0) " stroke-linecap="round" />
</g>
</svg>