<svg xmlns="http://www.w3.org/2000/svg" xmlns:xlink="http://www.w3.org/1999/xlink" version="1.1" width="256" height="256" viewBox="0 0 256 256" xml:space="preserve">

<defs>
</defs>
<g style="stroke: none; stroke-width: 0; stroke-dasharray: none; stroke-linecap: butt; stroke-linejoin: miter; stroke-miterlimit: 10; fill: none; fill-rule: nonzero; opacity: 1;" transform="translate(1.4065934065934016 1.4065934065934016) scale(2.81 2.81)" >
	<path d="M 78.966 90 H 11.034 C 4.95 90 0 85.05 0 78.966 V 11.034 C 0 4.95 4.95 0 11.034 0 h 67.932 C 85.05 0 90 4.95 90 11.034 v 67.932 C 90 85.05 85.05 90 78.966 90 z M 11.034 6 C 8.258 6 6 8.258 6 11.034 v 67.932 C 6 81.741 8.258 84 11.034 84 h 67.932 C 81.741 84 84 81.741 84 78.966 V 11.034 C 84 8.258 81.741 6 78.966 6 H 11.034 z" style="stroke: none; stroke-width: 1; stroke-dasharray: none; stroke-linecap: butt; stroke-linejoin: miter; stroke-miterlimit: 10; fill: rgb(0,0,0); fill-rule: nonzero; opacity: 1;" transform=" matrix(1 0 0 1 0 0) " stroke-linecap="round" />
	<rect x="20.82" y="36.62" rx="0" ry="0" width="10.37" height="33.34" style="stroke: none; stroke-width: 1; stroke-dasharray: none; stroke-linecap: butt; stroke-linejoin: miter; stroke-miterlimit: 10; fill: rgb(0,0,0); fill-rule: nonzero; opacity: 1;" transform=" matrix(1 0 0 1 0 0) "/>
	<path d="M 26.005 32.062 c -3.32 0 -6.005 -2.692 -6.005 -6.007 c 0 -3.318 2.685 -6.011 6.005 -6.011 c 3.313 0 6.005 2.692 6.005 6.011 C 32.01 29.37 29.317 32.062 26.005 32.062 z" style="stroke: none; stroke-width: 1; stroke-dasharray: none; stroke-linecap: butt; stroke-linejoin: miter; stroke-miterlimit: 10; fill: rgb(0,0,0); fill-rule: nonzero; opacity: 1;" transform=" matrix(1 0 0 1 0 0) " stroke-linecap="round" />
	<path d="M 70 69.956 H 59.643 V 53.743 c 0 -3.867 -0.067 -8.84 -5.385 -8.84 c -5.392 0 -6.215 4.215 -6.215 8.562 v 16.491 H 37.686 V 36.617 h 9.939 v 4.559 h 0.141 c 1.383 -2.622 4.764 -5.385 9.804 -5.385 c 10.493 0 12.43 6.903 12.43 15.88 V 69.956 z" style="stroke: none; stroke-width: 1; stroke-dasharray: none; stroke-linecap: butt; stroke-linejoin: miter; stroke-miterlimit: 10; fill: rgb(0,0,0); fill-rule: nonzero; opacity: 1;" transform=" matrix(1 0 0 1 0 0) " stroke-linecap="round" />
</g>
</svg>