<svg xmlns="http://www.w3.org/2000/svg" xmlns:xlink="http://www.w3.org/1999/xlink" version="1.1" width="256" height="256" viewBox="0 0 256 256" xml:space="preserve">

<defs>
</defs>
<g style="stroke: none; stroke-width: 0; stroke-dasharray: none; stroke-linecap: butt; stroke-linejoin: miter; stroke-miterlimit: 10; fill: none; fill-rule: nonzero; opacity: 1;" transform="translate(1.4065934065934016 1.4065934065934016) scale(2.81 2.81)" >
	<path d="M 13.252 45.84 H 1.159 c -0.552 0 -1 -0.448 -1 -1 s 0.448 -1 1 -1 h 12.092 c 0.552 0 1 0.448 1 1 S 13.804 45.84 13.252 45.84 z" style="stroke: none; stroke-width: 1; stroke-dasharray: none; stroke-linecap: butt; stroke-linejoin: miter; stroke-miterlimit: 10; fill: rgb(0,0,0); fill-rule: nonzero; opacity: 1;" transform=" matrix(1 0 0 1 0 0) " stroke-linecap="round" />
	<path d="M 88.841 45.84 H 76.748 c -0.553 0 -1 -0.448 -1 -1 s 0.447 -1 1 -1 h 12.093 c 0.553 0 1 0.448 1 1 S 89.393 45.84 88.841 45.84 z" style="stroke: none; stroke-width: 1; stroke-dasharray: none; stroke-linecap: butt; stroke-linejoin: miter; stroke-miterlimit: 10; fill: rgb(0,0,0); fill-rule: nonzero; opacity: 1;" transform=" matrix(1 0 0 1 0 0) " stroke-linecap="round" />
	<path d="M 67.449 23.391 c -0.256 0 -0.512 -0.098 -0.707 -0.293 c -0.391 -0.391 -0.391 -1.023 0 -1.414 l 8.551 -8.55 c 0.391 -0.391 1.023 -0.391 1.414 0 s 0.391 1.023 0 1.414 l -8.551 8.55 C 67.961 23.293 67.705 23.391 67.449 23.391 z" style="stroke: none; stroke-width: 1; stroke-dasharray: none; stroke-linecap: butt; stroke-linejoin: miter; stroke-miterlimit: 10; fill: rgb(0,0,0); fill-rule: nonzero; opacity: 1;" transform=" matrix(1 0 0 1 0 0) " stroke-linecap="round" />
	<path d="M 45 14.092 c -0.552 0 -1 -0.448 -1 -1 V 1 c 0 -0.552 0.448 -1 1 -1 s 1 0.448 1 1 v 12.092 C 46 13.645 45.552 14.092 45 14.092 z" style="stroke: none; stroke-width: 1; stroke-dasharray: none; stroke-linecap: butt; stroke-linejoin: miter; stroke-miterlimit: 10; fill: rgb(0,0,0); fill-rule: nonzero; opacity: 1;" transform=" matrix(1 0 0 1 0 0) " stroke-linecap="round" />
	<path d="M 22.551 23.391 c -0.256 0 -0.512 -0.098 -0.707 -0.293 l -8.551 -8.55 c -0.391 -0.391 -0.391 -1.023 0 -1.414 s 1.023 -0.391 1.414 0 l 8.551 8.55 c 0.391 0.391 0.391 1.023 0 1.414 C 23.062 23.293 22.806 23.391 22.551 23.391 z" style="stroke: none; stroke-width: 1; stroke-dasharray: none; stroke-linecap: butt; stroke-linejoin: miter; stroke-miterlimit: 10; fill: rgb(0,0,0); fill-rule: nonzero; opacity: 1;" transform=" matrix(1 0 0 1 0 0) " stroke-linecap="round" />
	<path d="M 44.968 54.285 c -1.659 0 -3.25 -0.653 -4.428 -1.831 c -1.295 -1.296 -1.955 -3.091 -1.811 -4.925 c 0.239 -3.026 2.701 -5.488 5.727 -5.727 c 1.834 -0.144 3.629 0.515 4.925 1.811 c 1.296 1.296 1.956 3.091 1.812 4.925 c -0.238 3.026 -2.7 5.488 -5.727 5.728 l 0 0 C 45.299 54.278 45.133 54.285 44.968 54.285 z M 44.953 43.783 c -0.113 0 -0.227 0.004 -0.34 0.014 c -2.056 0.162 -3.728 1.834 -3.89 3.89 c -0.099 1.25 0.35 2.473 1.23 3.354 c 0.881 0.881 2.098 1.329 3.354 1.231 l 0 0 c 2.056 -0.162 3.729 -1.835 3.89 -3.89 c 0.099 -1.251 -0.351 -2.473 -1.231 -3.354 C 47.166 44.227 46.083 43.783 44.953 43.783 z" style="stroke: none; stroke-width: 1; stroke-dasharray: none; stroke-linecap: butt; stroke-linejoin: miter; stroke-miterlimit: 10; fill: rgb(0,0,0); fill-rule: nonzero; opacity: 1;" transform=" matrix(1 0 0 1 0 0) " stroke-linecap="round" />
	<path d="M 48.823 73.274 h -2 V 60.293 c 0 -1.021 0.639 -1.929 1.588 -2.257 c 0.405 -0.14 0.803 -0.305 1.182 -0.49 c 0.902 -0.441 1.992 -0.253 2.712 0.466 l 0.179 0.178 l 2.634 -2.634 l -0.177 -0.177 c -0.721 -0.721 -0.909 -1.811 -0.469 -2.712 c 0.188 -0.384 0.353 -0.781 0.491 -1.182 c 0.329 -0.951 1.236 -1.589 2.258 -1.589 h 0.24 v -3.725 h -0.241 c -1.021 0 -1.928 -0.638 -2.257 -1.587 c -0.139 -0.404 -0.304 -0.801 -0.491 -1.183 c -0.44 -0.902 -0.252 -1.992 0.469 -2.712 l 0.177 -0.177 l -2.634 -2.634 l -0.178 0.177 c -0.72 0.721 -1.809 0.908 -2.712 0.468 c -0.383 -0.187 -0.78 -0.353 -1.183 -0.492 c -0.949 -0.327 -1.588 -1.234 -1.588 -2.256 v -0.241 h -3.725 v 0.241 c 0 1.022 -0.638 1.929 -1.588 2.257 c -0.404 0.14 -0.802 0.305 -1.182 0.491 c -0.902 0.441 -1.992 0.253 -2.712 -0.467 l -0.177 -0.177 l -2.635 2.634 l 0.177 0.177 c 0.721 0.721 0.909 1.81 0.468 2.711 c -0.188 0.385 -0.354 0.783 -0.491 1.182 c -0.329 0.951 -1.235 1.589 -2.257 1.589 h -0.241 v 3.725 h 0.241 c 1.021 0 1.928 0.638 2.257 1.587 c 0.138 0.399 0.303 0.798 0.492 1.185 c 0.44 0.9 0.252 1.99 -0.468 2.711 l -0.177 0.177 l 2.635 2.634 l 0.176 -0.177 c 0.722 -0.72 1.813 -0.907 2.712 -0.468 c 0.38 0.187 0.778 0.352 1.182 0.491 c 0.95 0.328 1.588 1.235 1.588 2.257 v 12.981 h -2 V 60.293 c 0 -0.167 -0.099 -0.317 -0.241 -0.366 c -0.482 -0.166 -0.956 -0.363 -1.409 -0.586 c -0.13 -0.063 -0.304 -0.029 -0.419 0.087 l -0.491 0.492 c -0.608 0.605 -1.593 0.604 -2.197 0 l -3.267 -3.266 c -0.605 -0.607 -0.604 -1.592 0 -2.196 l 0.493 -0.493 c 0.115 -0.115 0.15 -0.287 0.085 -0.419 c -0.225 -0.461 -0.421 -0.935 -0.585 -1.41 c -0.049 -0.14 -0.2 -0.239 -0.367 -0.239 h -0.688 c -0.856 0 -1.553 -0.696 -1.553 -1.553 v -4.619 c 0 -0.856 0.697 -1.553 1.553 -1.553 h 0.688 c 0.167 0 0.317 -0.099 0.367 -0.241 c 0.164 -0.476 0.361 -0.95 0.584 -1.408 c 0.064 -0.132 0.029 -0.304 -0.085 -0.419 l -0.493 -0.493 c -0.605 -0.605 -0.605 -1.59 -0.001 -2.196 l 3.268 -3.267 c 0.605 -0.604 1.589 -0.605 2.196 -0.001 l 0.494 0.495 c 0.115 0.115 0.288 0.15 0.419 0.084 c 0.452 -0.221 0.925 -0.418 1.407 -0.584 c 0.143 -0.049 0.242 -0.2 0.242 -0.367 v -0.688 c 0 -0.856 0.697 -1.553 1.553 -1.553 h 4.619 c 0.856 0 1.553 0.697 1.553 1.553 v 0.688 c 0 0.167 0.099 0.317 0.241 0.366 c 0.479 0.166 0.952 0.362 1.407 0.585 c 0.134 0.063 0.305 0.029 0.42 -0.085 l 0.493 -0.493 c 0.606 -0.606 1.592 -0.605 2.196 0 l 3.267 3.266 c 0.605 0.606 0.604 1.591 0 2.196 l -0.493 0.493 c -0.115 0.115 -0.15 0.288 -0.086 0.419 c 0.223 0.454 0.42 0.928 0.585 1.409 c 0.049 0.141 0.199 0.24 0.366 0.24 h 0.688 c 0.856 0 1.553 0.697 1.553 1.553 v 4.619 c 0 0.856 -0.696 1.553 -1.553 1.553 H 57.22 c -0.167 0 -0.318 0.1 -0.367 0.241 c -0.165 0.478 -0.361 0.951 -0.585 1.408 c -0.064 0.132 -0.029 0.304 0.086 0.419 l 0.493 0.493 c 0.604 0.604 0.605 1.589 0.002 2.194 l -3.269 3.268 c -0.606 0.606 -1.592 0.604 -2.196 0 l -0.493 -0.493 c -0.115 -0.115 -0.289 -0.149 -0.419 -0.085 c -0.452 0.222 -0.926 0.419 -1.408 0.585 c -0.142 0.049 -0.241 0.199 -0.241 0.366 V 73.274 z" style="stroke: none; stroke-width: 1; stroke-dasharray: none; stroke-linecap: butt; stroke-linejoin: miter; stroke-miterlimit: 10; fill: rgb(0,0,0); fill-rule: nonzero; opacity: 1;" transform=" matrix(1 0 0 1 0 0) " stroke-linecap="round" />
	<path d="M 63.783 27.516 c -5.445 -5.195 -12.6 -7.868 -20.138 -7.506 c -13.532 0.637 -24.642 11.273 -25.844 24.742 c -0.857 9.607 3.262 18.747 11.02 24.448 c 2.432 1.787 3.883 4.777 3.883 7.998 v 7.424 c 0 2.966 2.413 5.379 5.379 5.379 h 14.661 c 2.966 0 5.379 -2.413 5.379 -5.379 v -8.107 c 0 -3.07 1.475 -6.032 4.045 -8.125 c 6.396 -5.205 10.064 -12.91 10.064 -21.139 C 72.232 39.722 69.231 32.714 63.783 27.516 z M 52.744 88 H 38.083 c -1.863 0 -3.379 -1.516 -3.379 -3.379 v -6.424 h 21.419 v 6.424 C 56.123 86.484 54.607 88 52.744 88 z M 60.906 66.838 c -2.952 2.402 -4.667 5.8 -4.765 9.359 H 34.647 c -0.276 -3.468 -1.957 -6.636 -4.642 -8.609 c -7.189 -5.284 -11.006 -13.755 -10.212 -22.659 c 1.113 -12.478 11.408 -22.332 23.946 -22.922 c 0.413 -0.02 0.824 -0.029 1.233 -0.029 c 6.533 0 12.683 2.455 17.431 6.985 c 5.049 4.817 7.829 11.312 7.829 18.287 C 70.232 54.874 66.833 62.014 60.906 66.838 z" style="stroke: none; stroke-width: 1; stroke-dasharray: none; stroke-linecap: butt; stroke-linejoin: miter; stroke-miterlimit: 10; fill: rgb(0,0,0); fill-rule: nonzero; opacity: 1;" transform=" matrix(1 0 0 1 0 0) " stroke-linecap="round" />
</g>
</svg>