<svg xmlns="http://www.w3.org/2000/svg" viewBox="0 0 80 80"><path d="M12 7v66a2 2 0 0 0 2 2h52a2 2 0 0 0 2-2V7a2 2 0 0 0-2-2H14a2 2 0 0 0-2 2zm4 2h48v62H16V9z"/><path d="M32.769 31c2.169 0 4.255-.945 5.724-2.593a2 2 0 1 0-2.986-2.66c-.72.808-1.693 1.253-2.738 1.253C30.691 27 29 25.206 29 23s1.69-4 3.769-4c1.045 0 2.017.445 2.738 1.254a2 2 0 0 0 2.986-2.661C37.024 15.945 34.938 15 32.77 15 28.485 15 25 18.589 25 23s3.485 8 7.769 8zm13.385-1.231a2 2 0 0 0 3.692 0l5-12a2 2 0 1 0-3.692-1.538L48 23.8l-3.154-7.569a2 2 0 1 0-3.692 1.538l5 12zM59 39H21a2 2 0 0 0 0 4h38a2 2 0 0 0 0-4zm0 11H21a2 2 0 0 0 0 4h38a2 2 0 0 0 0-4zm0 11H21a2 2 0 0 0 0 4h38a2 2 0 0 0 0-4z"/></svg>