<svg xmlns="http://www.w3.org/2000/svg" xmlns:xlink="http://www.w3.org/1999/xlink" version="1.1" width="256" height="256" viewBox="0 0 256 256" xml:space="preserve">

<defs>
</defs>
<g style="stroke: none; stroke-width: 0; stroke-dasharray: none; stroke-linecap: butt; stroke-linejoin: miter; stroke-miterlimit: 10; fill: none; fill-rule: nonzero; opacity: 1;" transform="translate(1.4065934065934016 1.4065934065934016) scale(2.81 2.81)" >
	<path d="M 51.507 90 H 19.16 c -3.556 0 -6.449 -2.893 -6.449 -6.448 V 60.503 c 0 -1.4 -0.487 -2.778 -1.41 -3.986 c -4.986 -6.531 -7.531 -14.674 -7.166 -22.927 C 4.947 15.278 19.942 0.53 38.273 0.015 c 9.623 -0.277 18.72 3.28 25.598 10 l 10.003 9.611 c 1.435 1.378 2.501 3.111 3.085 5.012 c 0.027 0.09 0.049 0.183 0.063 0.276 c 1.188 7.547 3.932 16.467 8.634 28.071 c 0.022 0.054 0.042 0.109 0.059 0.165 c 0.392 1.276 0.16 2.625 -0.634 3.699 c -0.794 1.073 -2.014 1.688 -3.349 1.688 H 69.965 c -1.104 0 -2 -0.896 -2 -2 s 0.896 -2 2 -2 h 11.768 c 0.022 0 0.083 0 0.133 -0.067 c 0.03 -0.041 0.036 -0.079 0.033 -0.107 c -4.759 -11.759 -7.559 -20.881 -8.804 -28.678 c -0.392 -1.202 -1.079 -2.298 -1.992 -3.175 l -10.015 -9.623 C 54.979 6.919 46.914 3.77 38.386 4.013 C 22.14 4.47 8.851 17.539 8.132 33.766 c -0.324 7.318 1.931 14.536 6.349 20.323 c 1.459 1.911 2.23 4.13 2.23 6.414 v 23.049 c 0 1.35 1.099 2.448 2.449 2.448 h 32.347 c 1.35 0 2.448 -1.099 2.448 -2.448 v -3.819 c 0 -1.104 0.896 -2 2 -2 s 2 0.896 2 2 v 3.819 C 57.955 87.107 55.063 90 51.507 90 z" style="stroke: none; stroke-width: 1; stroke-dasharray: none; stroke-linecap: butt; stroke-linejoin: miter; stroke-miterlimit: 10; fill: rgb(0,0,0); fill-rule: nonzero; opacity: 1;" transform=" matrix(1 0 0 1 0 0) " stroke-linecap="round" />
	<path d="M 68.529 81.732 H 42.176 c -1.104 0 -2 -0.896 -2 -2 s 0.896 -2 2 -2 h 26.354 c 2.602 0 4.718 -2.116 4.718 -4.717 V 56.537 c 0 -1.104 0.896 -2 2 -2 s 2 0.896 2 2 v 16.479 C 77.247 77.822 73.336 81.732 68.529 81.732 z" style="stroke: none; stroke-width: 1; stroke-dasharray: none; stroke-linecap: butt; stroke-linejoin: miter; stroke-miterlimit: 10; fill: rgb(0,0,0); fill-rule: nonzero; opacity: 1;" transform=" matrix(1 0 0 1 0 0) " stroke-linecap="round" />
	<path d="M 32.142 57.073 c -0.924 0 -1.859 -0.235 -2.714 -0.729 l -4.571 -2.639 c -2.602 -1.504 -3.497 -4.843 -1.995 -7.445 c 0.271 -0.471 0.245 -1.068 -0.069 -1.559 c -0.157 -0.244 -0.31 -0.495 -0.458 -0.751 c -0.148 -0.258 -0.289 -0.515 -0.423 -0.774 c -0.267 -0.517 -0.771 -0.838 -1.314 -0.838 c -3.005 0 -5.45 -2.445 -5.45 -5.45 v -5.277 c 0 -3.005 2.445 -5.45 5.45 -5.45 c 0.544 0 1.037 -0.302 1.287 -0.788 c 0.285 -0.554 0.602 -1.103 0.94 -1.629 c 0.295 -0.458 0.309 -1.033 0.038 -1.503 c -1.502 -2.603 -0.608 -5.943 1.994 -7.446 l 4.571 -2.638 c 1.26 -0.728 2.729 -0.921 4.136 -0.545 c 1.406 0.377 2.582 1.279 3.309 2.54 c 0.271 0.47 0.772 0.741 1.32 0.72 c 0.623 -0.031 1.255 -0.031 1.882 0 c 0.554 0.017 1.054 -0.249 1.326 -0.719 c 1.502 -2.604 4.841 -3.5 7.446 -1.996 l 4.57 2.638 c 2.602 1.503 3.496 4.843 1.995 7.445 c -0.272 0.471 -0.246 1.067 0.068 1.558 c 0.158 0.247 0.31 0.495 0.457 0.749 c 0.149 0.261 0.29 0.518 0.424 0.777 c 0.268 0.517 0.771 0.838 1.314 0.838 c 3.005 0 5.45 2.445 5.45 5.45 v 5.277 c 0 3.005 -2.445 5.45 -5.45 5.45 c -0.544 0 -1.037 0.302 -1.287 0.788 c -0.287 0.559 -0.604 1.107 -0.94 1.631 c -0.294 0.457 -0.309 1.032 -0.037 1.503 c 1.502 2.601 0.608 5.941 -1.993 7.444 l -4.571 2.64 c -2.607 1.5 -5.944 0.604 -7.445 -1.996 c -0.272 -0.47 -0.769 -0.768 -1.32 -0.719 c -0.625 0.029 -1.26 0.029 -1.882 0 c -0.57 -0.048 -1.054 0.248 -1.325 0.718 C 35.864 56.095 34.027 57.073 32.142 57.073 z M 32.15 15.425 c -0.251 0 -0.499 0.066 -0.722 0.195 l -4.571 2.638 c -0.692 0.4 -0.93 1.289 -0.531 1.981 c 1.024 1.774 0.972 3.946 -0.138 5.668 c -0.269 0.417 -0.52 0.854 -0.746 1.294 c -0.938 1.825 -2.794 2.959 -4.842 2.959 c -0.8 0 -1.452 0.65 -1.452 1.45 v 5.277 c 0 0.8 0.65 1.45 1.45 1.45 c 2.045 0 3.911 1.15 4.868 3 c 0.106 0.207 0.218 0.41 0.335 0.613 c 0.115 0.199 0.235 0.397 0.359 0.591 c 1.125 1.756 1.188 3.946 0.167 5.717 c -0.4 0.693 -0.162 1.582 0.531 1.982 l 4.57 2.638 c 0.692 0.4 1.581 0.161 1.981 -0.531 c 1.025 -1.775 2.937 -2.802 4.985 -2.715 c 0.494 0.025 0.996 0.025 1.494 0 c 2.042 -0.086 3.953 0.94 4.977 2.713 c 0.4 0.693 1.289 0.933 1.982 0.533 l 4.569 -2.639 c 0.692 -0.399 0.931 -1.288 0.53 -1.98 c -1.023 -1.774 -0.972 -3.946 0.138 -5.668 c 0.268 -0.416 0.519 -0.851 0.747 -1.294 c 0.938 -1.825 2.793 -2.959 4.842 -2.959 c 0.801 0 1.452 -0.65 1.452 -1.45 v -5.277 c 0 -0.799 -0.65 -1.45 -1.45 -1.45 c -2.045 0 -3.91 -1.15 -4.867 -3.001 c -0.106 -0.207 -0.218 -0.41 -0.335 -0.613 c -0.115 -0.199 -0.237 -0.398 -0.362 -0.595 c -1.123 -1.752 -1.187 -3.942 -0.163 -5.713 c 0.398 -0.692 0.16 -1.581 -0.532 -1.981 l -4.569 -2.638 c -0.336 -0.194 -0.728 -0.244 -1.101 -0.145 c -0.374 0.101 -0.687 0.34 -0.88 0.676 c -1.024 1.774 -2.926 2.815 -4.985 2.715 c -0.496 -0.024 -0.998 -0.023 -1.494 0 c -2.042 0.095 -3.953 -0.941 -4.977 -2.714 c -0.194 -0.336 -0.507 -0.576 -0.881 -0.677 C 32.402 15.442 32.276 15.425 32.15 15.425 z" style="stroke: none; stroke-width: 1; stroke-dasharray: none; stroke-linecap: butt; stroke-linejoin: miter; stroke-miterlimit: 10; fill: rgb(0,0,0); fill-rule: nonzero; opacity: 1;" transform=" matrix(1 0 0 1 0 0) " stroke-linecap="round" />
	<path d="M 39.136 44.557 c -5.684 0 -10.307 -4.624 -10.307 -10.307 s 4.624 -10.307 10.307 -10.307 s 10.307 4.624 10.307 10.307 S 44.82 44.557 39.136 44.557 z M 39.136 27.943 c -3.478 0 -6.307 2.829 -6.307 6.307 s 2.83 6.307 6.307 6.307 s 6.307 -2.829 6.307 -6.307 S 42.614 27.943 39.136 27.943 z" style="stroke: none; stroke-width: 1; stroke-dasharray: none; stroke-linecap: butt; stroke-linejoin: miter; stroke-miterlimit: 10; fill: rgb(0,0,0); fill-rule: nonzero; opacity: 1;" transform=" matrix(1 0 0 1 0 0) " stroke-linecap="round" />
</g>
</svg>